<svg viewBox="0 0 80 80" width="32" height="32" xmlns="http://www.w3.org/2000/svg">
  <defs>
    <linearGradient id="fg" x1="0" y1="0" x2="1" y2="1">
      <stop offset="0%" stop-color="#c8ff00"/>
      <stop offset="40%" stop-color="#00d4ff"/>
      <stop offset="100%" stop-color="#ff6b9d"/>
    </linearGradient>
  </defs>
  <path d="M15 25L20 7.5c0-1.2 1.5-1.8 2.2-.8L30 16h20l7.8-9.3c.7-1 2.2-.4 2.2.8L65 25c5 6 5 14 0 20-3.7 5-10 8.7-17.5 10v3.7c0 2-1.7 3.7-3.7 3.7h-7.6c-2 0-3.7-1.7-3.7-3.7V55C25.7 53.7 19 50 15.5 45c-5-6-5-14 0-20z" fill="url(#fg)" opacity="0.9"/>
  <circle cx="30" cy="34" r="6" fill="#08090c"/>
  <circle cx="50" cy="34" r="6" fill="#08090c"/>
  <circle cx="32" cy="32" r="2.2" fill="#eef2ff"/>
  <circle cx="52" cy="32" r="2.2" fill="#eef2ff"/>
  <ellipse cx="40" cy="44" rx="3" ry="2" fill="#ff6b9d"/>
  <path d="M35 47q5 3.5 10 0" stroke="#08090c" stroke-width="1.4" fill="none" stroke-linecap="round"/>
</svg>
